<svg version="1.1" xmlns="http://www.w3.org/2000/svg" xmlns:xlink="http://www.w3.org/1999/xlink" width="28.875" height="35.125" viewBox="0,0,28.875,35.125"><g transform="translate(-225.5625,-162.4375)"><g data-paper-data="{&quot;isPaintingLayer&quot;:true}" fill-rule="nonzero" stroke-linejoin="miter" stroke-miterlimit="10" stroke-dasharray="" stroke-dashoffset="0" style="mix-blend-mode: normal"><g><path d="M240,163.9375c7.14518,0 12.9375,5.93223 12.9375,13.25c0,7.31777 -5.79232,13.25 -12.9375,13.25c-7.14518,0 -12.9375,-5.93223 -12.9375,-13.25c0,-7.31777 5.79232,-13.25 12.9375,-13.25z" fill="none" stroke="#ffffff" stroke-width="3" stroke-linecap="butt"/><path d="M230.78096,177.18751c0,-5.17917 4.09952,-9.37772 9.15654,-9.37772c5.05702,0 9.15654,4.19855 9.15654,9.37772c0,2.18228 -0.5335,3.52048 -1.70876,4.95747c-0.15526,0.18983 -0.68913,0.50034 -0.89418,0.26922c-0.68378,-0.77071 -2.04043,-2.7114 -2.62129,-3.22286c-0.62266,-0.54826 -2.01755,-2.05472 -3.90526,-0.81151c-1.81081,1.19256 -1.08302,3.3141 -0.67397,3.86822c0.38425,0.52051 1.48085,2.10552 2.06561,2.9828c0.40544,0.60826 0.20446,0.71755 -0.13734,0.91472c-0.35917,0.20719 -0.83605,0.41965 -1.28136,0.41965c-5.05702,0 -9.15654,-4.19855 -9.15654,-9.37772z" fill="#0077ff" stroke="none" stroke-width="0" stroke-linecap="butt"/><path d="M252.9375,196.0625l-11.25,-15.25" fill="none" stroke="#ffffff" stroke-width="3" stroke-linecap="round"/></g></g></g></svg>